<?xml version="1.0" encoding="utf-8"?>
<!-- Generator: Adobe Illustrator 26.3.1, SVG Export Plug-In . SVG Version: 6.00 Build 0)  -->
<svg version="1.1" id="Layer_1" xmlns="http://www.w3.org/2000/svg" xmlns:xlink="http://www.w3.org/1999/xlink" x="0px" y="0px"
	 viewBox="0 0 1920 1165.8" style="enable-background:new 0 0 1920 1165.8;" xml:space="preserve">
<style type="text/css">
	.st0{fill:#F4F4F4;}
	.st1{fill:#232323;}
</style>
<rect x="0" class="st0" width="1920" height="1165.8"/>
<g>
	<path class="st1" d="M724.9,455.4l-37.8,63.1l-37.8-63.1h-31.8v141.9h31.8v-82.5l26.8,44.9l80.5-84.6v-19.7H724.9z"/>
	<path class="st1" d="M886.9,473.7l-21.2,22.3c8,7.1,12.9,17.6,12.9,30.4c0,24.4-17.9,40.6-40.6,40.6c-11.5,0-21.7-4.1-29-11.4
		l-21.2,22.3c13,12.2,30.7,19.5,50.2,19.5c40,0,72.4-30.8,72.4-71C910.4,505.1,901.4,486.5,886.9,473.7z"/>
	<path class="st1" d="M1022.8,504c0-27-21.3-48.7-47.7-48.7h-55.7v141.9h31.8v-46.6h15.1L984,582l21.3-22.4l-8.2-14.4
		C1012.5,537.3,1022.8,521.5,1022.8,504z M975.1,522.3h-23.9v-36.5h23.9c8.7,0,15.9,7.9,15.9,18.2
		C991,514.4,983.8,522.3,975.1,522.3z"/>
	<path class="st1" d="M1092.3,455.4h-55.7v71.3l31.8-33.4v-7.5h7.1l27.7-29.1C1099.7,455.8,1096.1,455.4,1092.3,455.4z
		 M1126.9,567.3l-21.4,22.5l4.3,7.6h34.2L1126.9,567.3z"/>
	<path class="st1" d="M1152.3,540.6v56.7h31.8v-90.2L1152.3,540.6z"/>
	<path class="st1" d="M1257.7,513.1c-21.7-6.4-25.1-10.7-25.1-17c0-5.4,5-10.3,14.9-10.3c12.7,0,19.3,6.1,24.1,15.8l26.8-15.4
		c-10.1-20.1-28-30.8-50.9-30.8c-5.7,0-11.4,0.9-16.7,2.5l-29.2,30.7l0,0c-0.5,2.6-0.8,5.4-0.8,8.2c0,26.1,20.3,35.9,40.9,41.5
		c20.9,5.7,28.8,9,28.8,17.3c0,5.3-3.8,11.1-18.9,11.1c-15.7,0-24.2-7.6-29.2-18.9l-27.4,15.6c7.8,20.1,26.4,33.7,55.7,33.7
		c30.2,0,51.7-15.6,51.7-41.9C1302.5,526.5,1278.8,519.3,1257.7,513.1z"/>
</g>
<path class="st0" d="M1114.3,545.2l12.5,22.1l-21.4,22.5l-22-39.1h-15.1v46.6h-31.8v-70.6l31.8-33.4v29h23.9
	c8.8,0,15.9-7.9,15.9-18.2c0-10.3-7.1-18.2-15.9-18.2h-16.8l27.7-29.1c21.1,5,36.8,24.3,36.8,47.4
	C1140,521.5,1129.6,537.3,1114.3,545.2z"/>
<path class="st1" d="M1108.2,504c0,10.3-7.1,18.2-15.9,18.2h-23.9v-29l7.1-7.5h16.8C1101,485.8,1108.2,493.7,1108.2,504z"/>
<polygon class="st0" points="1026.8,597.3 992.6,597.3 984,582 1005.3,559.6 "/>
<path class="st1" d="M1105.5,589.7L772.3,940c-9.1,9.6-21.5,14.5-33.8,14.5c-11.6,0-23.2-4.2-32.2-12.8c-18.6-17.7-19.3-47.4-1.7-66
	L984,582l8.6,15.3h34.2l-21.4-37.7l31.3-32.9v70.6h31.8v-46.6h15.1L1105.5,589.7z"/>
<polygon class="st0" points="1184.1,455.4 1184.1,507.1 1152.3,540.6 1152.3,455.4 "/>
<path class="st0" d="M1230.9,457.9l-29.2,30.7C1204.7,473.1,1216.4,462.5,1230.9,457.9z"/>
<path class="st1" d="M1666.5,0l-435.6,457.9c-14.5,4.6-26.2,15.2-29.2,30.7l0,0l-17.6,18.5v-51.8h-31.8v85.2l-25.4,26.7l-12.6-22.1
	c15.3-7.9,25.7-23.7,25.7-41.2c0-23.1-15.6-42.4-36.8-47.4L1537.6,0H1666.5z"/>
<polygon class="st0" points="756.7,475.1 756.7,597.3 724.9,597.3 724.9,514.8 688.9,575 685.3,575 676.2,559.7 "/>
<path class="st0" d="M886.9,473.6l-21.2,22.3c-7.2-6.5-16.9-10.1-27.7-10.1c-22.7,0-40.5,16.2-40.5,40.5c0,12,4.4,22.1,11.5,29.2
	l-21.2,22.3c-13.7-12.8-22.1-30.9-22.1-51.5c0-40.2,32.4-71,72.4-71C856.9,455.4,874,462.2,886.9,473.6z"/>
<path class="st1" d="M838.1,485.8c10.8,0,20.5,3.7,27.7,10.1L809,555.5c-7.2-7.1-11.5-17.1-11.5-29.2
	C797.5,502,815.4,485.8,838.1,485.8z"/>
<path class="st1" d="M1337.5,0L886.9,473.7c-12.9-11.4-30-18.3-48.9-18.3c-40,0-72.4,30.8-72.4,71c0,20.6,8.5,38.7,22.1,51.4
	L310.1,1080l-67.9,71.4c-9.1,9.6-21.5,14.4-33.9,14.4c-11.6,0-23.2-4.2-32.1-12.8c-18.6-17.7-19.3-47.4-1.6-66l6.7-7l459.2-482.7
	l8.9-9.4l26.8-28.2l9.1,15.3h3.6l36-60.2v82.5h31.8V475.1L1208.6,0H1337.5z"/>
<path class="st1" d="M1920,0v75.8l-582.8,612.6c-9.1,9.6-21.5,14.4-33.8,14.4c-11.6,0-23.2-4.2-32.2-12.8
	c-18.6-17.7-19.3-47.4-1.7-66L1863.2,0H1920z"/>
<path class="st1" d="M1920,244v135.5l-193.5,203.4c-9.1,9.6-21.5,14.4-33.8,14.4c-11.6,0-23.2-4.2-32.1-12.8
	c-18.6-17.7-19.4-47.4-1.6-66L1920,244z"/>
<circle class="st1" cx="92.9" cy="185.9" r="68.8"/>
<circle class="st1" cx="299.4" cy="422.2" r="68.8"/>
<circle class="st1" cx="1834.4" cy="927" r="68.8"/>
<circle class="st1" cx="1596" cy="983.4" r="48.8"/>
<circle class="st1" cx="1435.5" cy="858.2" r="48.8"/>
<circle class="st1" cx="1722.6" cy="768.8" r="28.2"/>
<circle class="st1" cx="82.4" cy="342.9" r="47.6"/>
<circle class="st1" cx="367.5" cy="158.4" r="136.9"/>
<path class="st1" d="M181.9,796.8c0,3.2-1.2,6.5-3.7,9L0,983.9v-35.8l160.3-160.3c4.9-4.9,13-4.9,17.9,0
	C180.7,790.3,181.9,793.5,181.9,796.8z"/>
<path class="st1" d="M157.7,898c0,3.2-1.2,6.5-3.7,9L0,1061v-35.8l136.1-136.1c4.9-4.9,13-4.9,17.9,0
	C156.4,891.5,157.7,894.8,157.7,898z"/>
<path class="st1" d="M130.1,1008.5c0,3.2-1.2,6.5-3.7,9L0,1143.8V1108l108.5-108.5c4.9-4.9,13-4.9,17.9,0
	C128.8,1002,130.1,1005.2,130.1,1008.5z"/>
</svg>
