<?xml version="1.0" encoding="utf-8"?>
<!-- Generator: Adobe Illustrator 26.3.1, SVG Export Plug-In . SVG Version: 6.00 Build 0)  -->
<svg version="1.1" id="Layer_1" xmlns="http://www.w3.org/2000/svg" xmlns:xlink="http://www.w3.org/1999/xlink" x="0px" y="0px"
	 viewBox="0 0 930.5 791.2" style="enable-background:new 0 0 930.5 791.2;" xml:space="preserve">
<style type="text/css">
	.st0{fill:#232323;}
</style>
<path class="st0" d="M826.3,292.4L404.2,714.6c-17.8,17.8-46.9,17.8-64.8,0l0,0c-17.8-17.8-17.8-46.9,0-64.8l422.2-422.2
	c17.8-17.8,46.9-17.8,64.8,0l0,0C844.1,245.5,844.1,274.6,826.3,292.4z"/>
<path class="st0" d="M506,268.9L83.9,691.1c-17.8,17.8-46.9,17.8-64.8,0l0,0c-17.8-17.8-17.8-46.9,0-64.8l422.2-422.2
	c17.8-17.8,46.9-17.8,64.8,0l0,0C523.8,222,523.8,251.1,506,268.9z"/>
<path class="st0" d="M922.6,346.3L702.2,566.8c-4.9,4.9-13,4.9-17.9,0l0,0c-4.9-4.9-4.9-13,0-17.9l220.4-220.4
	c4.9-4.9,13-4.9,17.9,0l0,0C927.5,333.4,927.5,341.4,922.6,346.3z"/>
<path class="st0" d="M843.8,565.2L623.4,785.6c-4.9,4.9-13,4.9-17.9,0l0,0c-4.9-4.9-4.9-13,0-17.9l220.4-220.4
	c4.9-4.9,13-4.9,17.9,0v0C848.7,552.2,848.7,560.3,843.8,565.2z"/>
<path class="st0" d="M753.7,125.6L576.3,303c-4.9,4.9-13,4.9-17.9,0h0c-4.9-4.9-4.9-13,0-17.9l177.4-177.4c4.9-4.9,13-4.9,17.9,0v0
	C758.6,112.6,758.6,120.7,753.7,125.6z"/>
<path class="st0" d="M253,125.6L75.6,303c-4.9,4.9-13,4.9-17.9,0h0c-4.9-4.9-4.9-13,0-17.9l177.4-177.4c4.9-4.9,13-4.9,17.9,0l0,0
	C257.9,112.6,257.9,120.7,253,125.6z"/>
<path class="st0" d="M486.1,25.9L308.7,203.3c-4.9,4.9-13,4.9-17.9,0l0,0c-4.9-4.9-4.9-13,0-17.9L468.1,8c4.9-4.9,13-4.9,17.9,0l0,0
	C491,13,491,21,486.1,25.9z"/>
</svg>
