<?xml version="1.0" encoding="utf-8"?>
<!-- Generator: Adobe Illustrator 26.3.1, SVG Export Plug-In . SVG Version: 6.00 Build 0)  -->
<svg version="1.1" id="Layer_1" xmlns="http://www.w3.org/2000/svg" xmlns:xlink="http://www.w3.org/1999/xlink" x="0px" y="0px"
	 viewBox="0 0 434 89.9" style="enable-background:new 0 0 434 89.9;" xml:space="preserve">
<style type="text/css">
	.st0{fill:#232323;}
</style>
<g>
	<path class="st0" d="M88.2,89.9H68V37.6L45.2,75.8H43L20.2,37.6v52.3H0V0h20.2l23.9,40L68,0h20.2V89.9z"/>
	<path class="st0" d="M93.9,45c0-25.5,20.5-45,45.9-45s45.9,19.5,45.9,45s-20.5,45-45.9,45S93.9,70.4,93.9,45z M165.4,45
		c0-15.4-11.3-25.7-25.7-25.7S114,29.5,114,45s11.3,25.7,25.7,25.7S165.4,60.4,165.4,45z"/>
	<path class="st0" d="M221,60.4h-9.6v29.6h-20.2V0h35.3c16.8,0,30.2,13.7,30.2,30.8c0,11.1-6.6,21.1-16.3,26.1l18.8,33h-21.7
		L221,60.4z M211.5,42.4h15.1c5.5,0,10.1-5,10.1-11.6s-4.5-11.6-10.1-11.6h-15.1V42.4z"/>
	<path class="st0" d="M295.3,60.4h-9.6v29.6h-20.2V0h35.3c16.8,0,30.2,13.7,30.2,30.8c0,11.1-6.6,21.1-16.3,26.1l18.8,33h-21.7
		L295.3,60.4z M285.7,42.4h15.1c5.5,0,10.1-5,10.1-11.6s-4.5-11.6-10.1-11.6h-15.1V42.4z"/>
	<path class="st0" d="M359,0v89.9h-20.2V0H359z"/>
	<path class="st0" d="M366,68.6l17.4-9.9c3.1,7.2,8.6,12,18.5,12c9.6,0,12-3.7,12-7c0-5.3-5-7.4-18.3-11c-13.1-3.6-26-9.8-26-26.3
		C369.7,9.6,384,0,399.3,0c14.5,0,25.8,6.8,32.2,19.5l-17,9.8c-3-6.2-7.2-10-15.2-10c-6.3,0-9.4,3.1-9.4,6.5c0,4,2.1,6.7,15.9,10.7
		c13.4,4,28.3,8.5,28.3,26.8c0,16.7-13.6,26.6-32.8,26.6C382.8,89.9,370.9,81.3,366,68.6z"/>
</g>
</svg>
