<?xml version="1.0" encoding="utf-8"?>
<!-- Generator: Adobe Illustrator 26.3.1, SVG Export Plug-In . SVG Version: 6.00 Build 0)  -->
<svg version="1.1" id="Layer_1" xmlns="http://www.w3.org/2000/svg" xmlns:xlink="http://www.w3.org/1999/xlink" x="0px" y="0px"
	 viewBox="0 0 1342 758" style="enable-background:new 0 0 1342 758;" xml:space="preserve">
<style type="text/css">
	.st0{fill:#232323;}
	.st1{fill:#F4F4F4;}
</style>
<g>
	<path id="Rectangle_71" class="st0" d="M40,0h1262c22.1,0,40,17.9,40,40v678c0,22.1-17.9,40-40,40H40c-22.1,0-40-17.9-40-40V40
		C0,17.9,17.9,0,40,0z"/>
	<g>
		<g>
			<path class="st1" d="M81.4,10.1c-4.3,0-8.5,0-12.8,0c-7.6,0-15.2,0-22.9,0c-3.2,0-6.5,0-9.7,0c-2.3,0-4.6-0.1-6.8,0.4
				c-5.5,1.1-10.3,4.8-12.9,9.8c-1.7,3.4-2.2,6.9-2.2,10.6c0,6.8,0,13.6,0,20.4c0,0.2,0,0.4,0,0.5c0,1.9,3,1.9,3,0
				c0-6.2,0-12.3,0-18.5c0-2.6-0.2-5.4,0.4-7.9c1.2-5.1,5-9.5,10-11.4c2.5-0.9,5-1,7.7-1c2.9,0,5.9,0,8.8,0c7.6,0,15.2,0,22.8,0
				c4.8,0,9.6,0,14.5,0C83.3,13.1,83.3,10.1,81.4,10.1L81.4,10.1z"/>
		</g>
	</g>
	<g>
		<g>
			<path class="st1" d="M91,10.1c-0.9,0-1.8,0-2.6,0c-0.1,0-0.2,0-0.4,0c-0.4,0-0.8,0.2-1.1,0.4c-0.3,0.3-0.5,0.7-0.4,1.1
				c0,0.4,0.1,0.8,0.4,1.1c0.3,0.3,0.7,0.4,1.1,0.4c0.9,0,1.8,0,2.6,0c0.1,0,0.2,0,0.4,0c0.4,0,0.8-0.2,1.1-0.4
				c0.3-0.3,0.5-0.7,0.4-1.1c0-0.4-0.1-0.8-0.4-1.1C91.7,10.3,91.4,10.1,91,10.1L91,10.1z"/>
		</g>
	</g>
	<circle class="st1" cx="96.5" cy="11.6" r="1.5"/>
	<circle class="st1" cx="89.5" cy="11.6" r="1.5"/>
	<g>
		<g>
			<path class="st1" d="M1244.4,745c-2.2,0-4.4,0-6.6,0c-0.7,0-1.4,0-2.1,0c-0.8,0-1.5,0.7-1.5,1.5c0,0.8,0.7,1.5,1.5,1.5
				c2.2,0,4.4,0,6.6,0c0.7,0,1.4,0,2.1,0c0.8,0,1.5-0.7,1.5-1.5C1245.9,745.7,1245.3,745,1244.4,745L1244.4,745z"/>
		</g>
	</g>
	<g>
		<g>
			<path class="st1" d="M993.8,748c2.3,0,4.6,0,6.8,0c6.1,0,12.2,0,18.4,0c8.9,0,17.9,0,26.8,0c10.8,0,21.5,0,32.3,0
				c11.5,0,23,0,34.5,0c11.2,0,22.4,0,33.5,0c9.9,0,19.7,0,29.6,0c7.5,0,15.1,0,22.6,0c4.1,0,8.3,0,12.4,0c4.6,0,9.3,0,13.9,0
				c1.7,0,3.4,0,5.1,0c1.9,0,1.9-3,0-3c-6,0-12,0-18,0c-3.2,0-6.3,0-9.5,0c-6.8,0-13.6,0-20.4,0c-9.4,0-18.8,0-28.3,0
				c-11,0-22,0-33,0c-11.5,0-23,0-34.5,0c-11,0-22,0-33,0c-9.5,0-19,0-28.5,0c-6.9,0-13.8,0-20.7,0c-3.3,0-6.6-0.1-9.9,0
				c-0.1,0-0.3,0-0.4,0C991.9,745,991.9,748,993.8,748L993.8,748z"/>
		</g>
	</g>
	<g>
		<g>
			<path class="st1" d="M1252.6,745c-0.9,0-1.8,0-2.6,0c-0.1,0-0.2,0-0.4,0c-0.4,0-0.8,0.2-1.1,0.4c-0.3,0.3-0.5,0.7-0.4,1.1
				c0,0.4,0.1,0.8,0.4,1.1c0.3,0.3,0.7,0.4,1.1,0.4c0.9,0,1.8,0,2.6,0c0.1,0,0.2,0,0.4,0c0.4,0,0.8-0.2,1.1-0.4
				c0.3-0.3,0.5-0.7,0.4-1.1c0-0.4-0.1-0.8-0.4-1.1C1253.3,745.2,1253,745,1252.6,745L1252.6,745z"/>
		</g>
	</g>
	<circle class="st1" cx="1251.1" cy="746.5" r="1.5"/>
	<circle class="st1" cx="1258.9" cy="746.5" r="1.5"/>
</g>
</svg>
